<svg xmlns="http://www.w3.org/2000/svg" width="1024" height="1024" viewBox="0 0 1024 1024">
  <defs>
    <linearGradient id="shell" x1="182" y1="144" x2="842" y2="896" gradientUnits="userSpaceOnUse">
      <stop offset="0" stop-color="#FFFDF8"/>
      <stop offset="0.58" stop-color="#F1F3F8"/>
      <stop offset="1" stop-color="#E5E8F0"/>
    </linearGradient>
    <radialGradient id="wash" cx="0" cy="0" r="1" gradientUnits="userSpaceOnUse" gradientTransform="translate(338 244) rotate(38.7) scale(486 406)">
      <stop offset="0" stop-color="#FFFFFF" stop-opacity="0.94"/>
      <stop offset="0.48" stop-color="#FFFFFF" stop-opacity="0.32"/>
      <stop offset="1" stop-color="#FFFFFF" stop-opacity="0"/>
    </radialGradient>
    <linearGradient id="mic" x1="396" y1="228" x2="644" y2="790" gradientUnits="userSpaceOnUse">
      <stop offset="0" stop-color="#16D2FF"/>
      <stop offset="0.56" stop-color="#1AA5FF"/>
      <stop offset="1" stop-color="#315BFF"/>
    </linearGradient>
    <filter id="softShadow" x="140" y="140" width="744" height="744" filterUnits="userSpaceOnUse">
      <feDropShadow dx="0" dy="18" stdDeviation="24" flood-color="#0F172A" flood-opacity="0.18"/>
    </filter>
  </defs>
  <g filter="url(#softShadow)">
    <rect x="96" y="96" width="832" height="832" rx="228" fill="url(#shell)"/>
    <rect x="96.5" y="96.5" width="831" height="831" rx="227.5" fill="none" stroke="#000000" stroke-opacity="0.08"/>
  </g>
  <path d="M176 216C176 176.235 208.235 144 248 144H602C676.006 144 736 203.994 736 278V278C736 317.765 703.765 350 664 350H310C236.546 350 176 290.454 176 216V216Z" fill="url(#wash)"/>
  <g fill="url(#mic)">
    <rect x="390" y="212" width="244" height="352" rx="122"/>
    <rect x="480" y="540" width="64" height="144" rx="32"/>
    <rect x="356" y="724" width="312" height="64" rx="32"/>
  </g>
  <rect x="438" y="258" width="56" height="220" rx="28" fill="#FFFFFF" fill-opacity="0.28"/>
  <rect x="390" y="212" width="244" height="352" rx="122" fill="none" stroke="#FFFFFF" stroke-opacity="0.34"/>
</svg>
