<svg xmlns="http://www.w3.org/2000/svg" width="1024" height="1024" viewBox="0 0 1024 1024">
  <defs>
    <linearGradient id="shell" x1="184" y1="144" x2="840" y2="896" gradientUnits="userSpaceOnUse">
      <stop offset="0" stop-color="#FFFDFC"/>
      <stop offset="0.56" stop-color="#F2F5FA"/>
      <stop offset="1" stop-color="#E1E7F1"/>
    </linearGradient>
    <radialGradient id="wash" cx="0" cy="0" r="1" gradientUnits="userSpaceOnUse" gradientTransform="translate(330 250) rotate(38) scale(470 396)">
      <stop offset="0" stop-color="#FFFFFF" stop-opacity="0.92"/>
      <stop offset="0.46" stop-color="#FFFFFF" stop-opacity="0.32"/>
      <stop offset="1" stop-color="#FFFFFF" stop-opacity="0"/>
    </radialGradient>
    <linearGradient id="capsule" x1="448" y1="240" x2="584" y2="520" gradientUnits="userSpaceOnUse">
      <stop offset="0" stop-color="#44D7FF"/>
      <stop offset="0.58" stop-color="#329BFF"/>
      <stop offset="1" stop-color="#2C63FF"/>
    </linearGradient>
    <filter id="shadow" x="136" y="136" width="752" height="752" filterUnits="userSpaceOnUse">
      <feDropShadow dx="0" dy="18" stdDeviation="26" flood-color="#0F172A" flood-opacity="0.16"/>
    </filter>
  </defs>

  <g filter="url(#shadow)">
    <rect x="96" y="96" width="832" height="832" rx="228" fill="url(#shell)"/>
    <rect x="96.5" y="96.5" width="831" height="831" rx="227.5" fill="none" stroke="#09111F" stroke-opacity="0.08"/>
  </g>

  <path d="M176 218C176 177.131 209.131 144 250 144H606C677.797 144 736 202.203 736 274V274C736 314.869 702.869 348 662 348H306C234.203 348 176 289.797 176 218V218Z" fill="url(#wash)"/>

  <path d="M382 432C382 558 439 642 512 642C585 642 642 558 642 432" fill="none" stroke="#28303D" stroke-width="54" stroke-linecap="round" stroke-linejoin="round"/>

  <rect x="444" y="236" width="136" height="284" rx="68" fill="url(#capsule)"/>
  <rect x="472" y="276" width="34" height="174" rx="17" fill="#FFFFFF" fill-opacity="0.28"/>
  <rect x="444" y="236" width="136" height="284" rx="68" fill="none" stroke="#FFFFFF" stroke-opacity="0.28"/>

  <rect x="492" y="640" width="40" height="104" rx="20" fill="#28303D"/>
  <rect x="392" y="760" width="240" height="48" rx="24" fill="#28303D"/>
</svg>
