<svg xmlns="http://www.w3.org/2000/svg" width="1024" height="1024" viewBox="0 0 1024 1024">
  <defs>
    <linearGradient id="shell" x1="184" y1="144" x2="840" y2="896" gradientUnits="userSpaceOnUse">
      <stop offset="0" stop-color="#FFFDFC"/>
      <stop offset="0.58" stop-color="#F2F4F8"/>
      <stop offset="1" stop-color="#E4EAF2"/>
    </linearGradient>
    <radialGradient id="wash" cx="0" cy="0" r="1" gradientUnits="userSpaceOnUse" gradientTransform="translate(310 258) rotate(36) scale(392 240)">
      <stop offset="0" stop-color="#FFFFFF" stop-opacity="0.92"/>
      <stop offset="0.44" stop-color="#FFFFFF" stop-opacity="0.24"/>
      <stop offset="1" stop-color="#FFFFFF" stop-opacity="0"/>
    </radialGradient>
    <radialGradient id="glow" cx="0" cy="0" r="1" gradientUnits="userSpaceOnUse" gradientTransform="translate(512 380) rotate(90) scale(113)">
      <stop offset="0" stop-color="#4FC2FF" stop-opacity="0.18"/>
      <stop offset="1" stop-color="#4FC2FF" stop-opacity="0"/>
    </radialGradient>
    <linearGradient id="mic-shell" x1="512" y1="214" x2="512" y2="530" gradientUnits="userSpaceOnUse">
      <stop offset="0" stop-color="#3F4C5C"/>
      <stop offset="0.52" stop-color="#232A34"/>
      <stop offset="1" stop-color="#121820"/>
    </linearGradient>
    <linearGradient id="signal" x1="510" y1="266" x2="510" y2="480" gradientUnits="userSpaceOnUse">
      <stop offset="0" stop-color="#76E0FF"/>
      <stop offset="0.44" stop-color="#47B6FF"/>
      <stop offset="1" stop-color="#3378FF"/>
    </linearGradient>
    <filter id="shadow" x="136" y="136" width="752" height="752" filterUnits="userSpaceOnUse">
      <feDropShadow dx="0" dy="18" stdDeviation="26" flood-color="#0F172A" flood-opacity="0.16"/>
    </filter>
  </defs>

  <g filter="url(#shadow)">
    <rect x="96" y="96" width="832" height="832" rx="228" fill="url(#shell)"/>
    <rect x="96.5" y="96.5" width="831" height="831" rx="227.5" fill="none" stroke="#09111F" stroke-opacity="0.08"/>
  </g>

  <path d="M187 243C187 205.997 216.997 176 254 176H536C597.856 176 648 226.144 648 288V288C648 325.003 618.003 355 581 355H299C237.144 355 187 304.856 187 243V243Z" fill="url(#wash)"/>

  <circle cx="512" cy="381" r="113" fill="url(#glow)"/>

  <path d="M387 428C387 580 444 647 512 647C580 647 637 580 637 428" fill="none" stroke="#29313B" stroke-width="52" stroke-linecap="round" stroke-linejoin="round"/>

  <rect x="413" y="214" width="198" height="324" rx="99" fill="url(#mic-shell)"/>
  <rect x="413.75" y="214.75" width="196.5" height="322.5" rx="98.25" fill="none" stroke="#FFFFFF" stroke-opacity="0.12" stroke-width="1.5"/>

  <rect x="486" y="266" width="49" height="214" rx="24.5" fill="url(#signal)"/>
  <rect x="486.75" y="266.75" width="47.5" height="212.5" rx="23.75" fill="none" stroke="#FFFFFF" stroke-opacity="0.14" stroke-width="1.5"/>

  <rect x="496" y="647" width="34" height="98" rx="17" fill="#29313B"/>
  <rect x="406" y="772" width="213" height="42" rx="21" fill="#29313B"/>
</svg>
